<svg xmlns="http://www.w3.org/2000/svg"  viewBox="0 0 80 80" width="40px" height="40px"><path fill="#fff" d="M69,45.5c-4.7,0-8.5-3.8-8.5-8.5s3.8-8.5,8.5-8.5s8.5,3.8,8.5,8.5S73.7,45.5,69,45.5z"/><path fill="#788b9c" d="M69,29c4.4,0,8,3.6,8,8s-3.6,8-8,8s-8-3.6-8-8S64.6,29,69,29 M69,28c-5,0-9,4-9,9s4,9,9,9s9-4,9-9 S74,28,69,28L69,28z"/><path fill="#fff" d="M11,45.5c-4.7,0-8.5-3.8-8.5-8.5s3.8-8.5,8.5-8.5s8.5,3.8,8.5,8.5S15.7,45.5,11,45.5z"/><path fill="#788b9c" d="M11,29c4.4,0,8,3.6,8,8s-3.6,8-8,8s-8-3.6-8-8S6.6,29,11,29 M11,28c-5,0-9,4-9,9s4,9,9,9s9-4,9-9 S16,28,11,28L11,28z"/><path fill="#fff" d="M40,73.5c-19.6,0-35.5-11-35.5-24.5S20.4,24.5,40,24.5s35.5,11,35.5,24.5S59.6,73.5,40,73.5z"/><path fill="#788b9c" d="M40,25c19.3,0,35,10.8,35,24S59.3,73,40,73S5,62.2,5,49S20.7,25,40,25 M40,24C20,24,4,35.3,4,49 s16,25,36,25s36-11.3,36-25S60,24,40,24L40,24z"/><path fill="#f78f8f" d="M27 40.5A4.5 4.5 0 1 0 27 49.5A4.5 4.5 0 1 0 27 40.5Z"/><path fill="#c74343" d="M27,41c2.2,0,4,1.8,4,4s-1.8,4-4,4s-4-1.8-4-4S24.8,41,27,41 M27,40c-2.8,0-5,2.2-5,5s2.2,5,5,5 s5-2.2,5-5S29.8,40,27,40L27,40z"/><g><path fill="#f78f8f" d="M53 40.5A4.5 4.5 0 1 0 53 49.5A4.5 4.5 0 1 0 53 40.5Z"/><path fill="#c74343" d="M53,41c2.2,0,4,1.8,4,4s-1.8,4-4,4s-4-1.8-4-4S50.8,41,53,41 M53,40c-2.8,0-5,2.2-5,5s2.2,5,5,5 s5-2.2,5-5S55.8,40,53,40L53,40z"/></g><path fill="#788b9c" d="M40,63.5c-8.8,0-13.2-5.2-13.4-5.4c-0.2-0.2-0.1-0.5,0.1-0.7s0.5-0.2,0.7,0.1c0,0.1,4.3,5,12.6,5 c8.3,0,12.6-5,12.6-5c0.2-0.2,0.5-0.2,0.7-0.1c0.2,0.2,0.2,0.5,0.1,0.7C53.2,58.3,48.8,63.5,40,63.5z"/><g><path fill="#b6c9d6" d="M70.5 6.5A5 5 0 1 0 70.5 16.5A5 5 0 1 0 70.5 6.5Z"/><path fill="#788b9c" d="M70.5,7C73,7,75,9,75,11.5S73,16,70.5,16S66,14,66,11.5S68,7,70.5,7 M70.5,6c-3,0-5.5,2.5-5.5,5.5 s2.5,5.5,5.5,5.5s5.5-2.5,5.5-5.5S73.5,6,70.5,6L70.5,6z"/></g><path fill="#788b9c" d="M41,24h-1v-8.2c0-4.4,3.3-7.7,7.7-7.7c1.8,0,3.7,0.5,5.8,1.1c3,0.8,6.7,1.9,12,1.9v1 c-5.4,0-9.2-1.1-12.2-1.9C51.2,9.5,49.4,9,47.7,9c-3.9,0-6.7,2.8-6.7,6.7V24z"/></svg>